# xmcd
#
# Track frame offsets: 
#        150
#        15768
#        31057
#        45811
#        59224
#        74431
#        89277
#        104603
#        119381
#        132260
#        147342
#        160638
#        171906
#        184039
#        196274
#
# Disc length: 2764 seconds
#
# Revision: 0
# Processed by: cddbd v1.5.1PL0 Copyright (c) Steve Scherf et al.
# Submitted via: ExactAudioCopy v0.95a5
#
DISCID=c60aca0f
DTITLE=MARIA VICTORIA - 15 EXITOS
DYEAR=2004
DGENRE=BOLERO
TTITLE0=SOY FELIZ
TTITLE1=TODAVIA NO ME MUERO
TTITLE2=MUCHO, MUCHO
TTITLE3=QUE DIVINO
TTITLE4=VENGANZA
TTITLE5=QUE BONITO SIENTO
TTITLE6=MIL BESOS
TTITLE7=CUIDADITO, CUIDADITO
TTITLE8=ME GUSTAS MUCHO
TTITLE9=MIL NOCHES
TTITLE10=ASI, ASI
TTITLE11=TENGO GANAS DE UN BESO
TTITLE12=ESTA SELLADO
TTITLE13=COMO UN PERRO
TTITLE14=DANCERO
EXTD=
EXTT0=
EXTT1=
EXTT2=
EXTT3=
EXTT4=
EXTT5=
EXTT6=
EXTT7=
EXTT8=
EXTT9=
EXTT10=
EXTT11=
EXTT12=
EXTT13=
EXTT14=
PLAYORDER=
